solid OpenSCAD_Model
  facet normal -1 0 0
    outer loop
      vertex -74 -40 -25
      vertex -74 40 25
      vertex -74 40 -25
    endloop
  endfacet
  facet normal -1 -0 0
    outer loop
      vertex -74 40 25
      vertex -74 -40 -25
      vertex -74 -40 25
    endloop
  endfacet
  facet normal 0 0 1
    outer loop
      vertex 74 40 25
      vertex 70.5 38 25
      vertex 74 -40 25
    endloop
  endfacet
  facet normal 0 0 1
    outer loop
      vertex 74 40 25
      vertex -70.5 38 25
      vertex 70.5 38 25
    endloop
  endfacet
  facet normal 0 0 1
    outer loop
      vertex -70.5 38 25
      vertex -74 40 25
      vertex -70.5 -38 25
    endloop
  endfacet
  facet normal -0 0 1
    outer loop
      vertex -74 40 25
      vertex -70.5 38 25
      vertex 74 40 25
    endloop
  endfacet
  facet normal -0 0 1
    outer loop
      vertex 70.5 -38 25
      vertex 74 -40 25
      vertex 70.5 38 25
    endloop
  endfacet
  facet normal -0 0 1
    outer loop
      vertex -70.5 -38 25
      vertex 74 -40 25
      vertex 70.5 -38 25
    endloop
  endfacet
  facet normal 0 0 1
    outer loop
      vertex -70.5 -38 25
      vertex -74 -40 25
      vertex 74 -40 25
    endloop
  endfacet
  facet normal 0 0 1
    outer loop
      vertex -74 -40 25
      vertex -70.5 -38 25
      vertex -74 40 25
    endloop
  endfacet
  facet normal 1 -0 0
    outer loop
      vertex 74 -40 25
      vertex 74 40 -25
      vertex 74 40 25
    endloop
  endfacet
  facet normal 1 0 0
    outer loop
      vertex 74 40 -25
      vertex 74 -40 25
      vertex 74 -40 -25
    endloop
  endfacet
  facet normal 0 0 -1
    outer loop
      vertex -74 -40 -25
      vertex 74 40 -25
      vertex 74 -40 -25
    endloop
  endfacet
  facet normal -0 0 -1
    outer loop
      vertex 74 40 -25
      vertex -74 -40 -25
      vertex -74 40 -25
    endloop
  endfacet
  facet normal 0 -1 0
    outer loop
      vertex -74 -40 -25
      vertex 74 -40 25
      vertex -74 -40 25
    endloop
  endfacet
  facet normal 0 -1 -0
    outer loop
      vertex 74 -40 25
      vertex -74 -40 -25
      vertex 74 -40 -25
    endloop
  endfacet
  facet normal 0 1 -0
    outer loop
      vertex 74 40 -25
      vertex -74 40 25
      vertex 74 40 25
    endloop
  endfacet
  facet normal 0 1 0
    outer loop
      vertex -74 40 25
      vertex 74 40 -25
      vertex -74 40 -25
    endloop
  endfacet
  facet normal 1 -0 0
    outer loop
      vertex -70.5 -38 25
      vertex -70.5 38 -17
      vertex -70.5 38 25
    endloop
  endfacet
  facet normal 1 0 0
    outer loop
      vertex -70.5 38 -17
      vertex -70.5 -38 25
      vertex -70.5 -38 -17
    endloop
  endfacet
  facet normal -1 0 0
    outer loop
      vertex 70.5 -38 -17
      vertex 70.5 38 25
      vertex 70.5 38 -17
    endloop
  endfacet
  facet normal -1 -0 0
    outer loop
      vertex 70.5 38 25
      vertex 70.5 -38 -17
      vertex 70.5 -38 25
    endloop
  endfacet
  facet normal 0 -1 0
    outer loop
      vertex -70.5 38 -17
      vertex 70.5 38 25
      vertex -70.5 38 25
    endloop
  endfacet
  facet normal 0 -1 -0
    outer loop
      vertex 70.5 38 25
      vertex -70.5 38 -17
      vertex 70.5 38 -17
    endloop
  endfacet
  facet normal -0 0 1
    outer loop
      vertex -70.5 38 -17
      vertex 70.5 -38 -17
      vertex 70.5 38 -17
    endloop
  endfacet
  facet normal 0 0 1
    outer loop
      vertex 70.5 -38 -17
      vertex -70.5 38 -17
      vertex -70.5 -38 -17
    endloop
  endfacet
  facet normal 0 1 -0
    outer loop
      vertex 70.5 -38 -17
      vertex -70.5 -38 25
      vertex 70.5 -38 25
    endloop
  endfacet
  facet normal 0 1 0
    outer loop
      vertex -70.5 -38 25
      vertex 70.5 -38 -17
      vertex -70.5 -38 -17
    endloop
  endfacet
endsolid OpenSCAD_Model
