solid OpenSCAD_Model
  facet normal -1 0 0
    outer loop
      vertex -35 -20 -15
      vertex -35 20 15
      vertex -35 20 -15
    endloop
  endfacet
  facet normal -1 -0 0
    outer loop
      vertex -35 20 15
      vertex -35 -20 -15
      vertex -35 -20 15
    endloop
  endfacet
  facet normal 0 0 1
    outer loop
      vertex 35 20 15
      vertex -34 18.75 15
      vertex 35 18.75 15
    endloop
  endfacet
  facet normal 0 0 1
    outer loop
      vertex -34 18.75 15
      vertex -35 20 15
      vertex -34 -18.75 15
    endloop
  endfacet
  facet normal -0 0 1
    outer loop
      vertex -35 20 15
      vertex -34 18.75 15
      vertex 35 20 15
    endloop
  endfacet
  facet normal -0 0 1
    outer loop
      vertex -34 -18.75 15
      vertex 35 -20 15
      vertex 35 -18.75 15
    endloop
  endfacet
  facet normal 0 0 1
    outer loop
      vertex -34 -18.75 15
      vertex -35 -20 15
      vertex 35 -20 15
    endloop
  endfacet
  facet normal 0 0 1
    outer loop
      vertex -35 -20 15
      vertex -34 -18.75 15
      vertex -35 20 15
    endloop
  endfacet
  facet normal 1 0 0
    outer loop
      vertex 35 -18.75 15
      vertex 35 -20 15
      vertex 35 -18.75 -12
    endloop
  endfacet
  facet normal 1 0 0
    outer loop
      vertex 35 18.75 -12
      vertex 35 20 15
      vertex 35 18.75 15
    endloop
  endfacet
  facet normal 1 0 0
    outer loop
      vertex 35 20 15
      vertex 35 18.75 -12
      vertex 35 20 -15
    endloop
  endfacet
  facet normal 1 -0 0
    outer loop
      vertex 35 -18.75 -12
      vertex 35 20 -15
      vertex 35 18.75 -12
    endloop
  endfacet
  facet normal 1 0 0
    outer loop
      vertex 35 -18.75 -12
      vertex 35 -20 -15
      vertex 35 20 -15
    endloop
  endfacet
  facet normal 1 0 0
    outer loop
      vertex 35 -20 -15
      vertex 35 -18.75 -12
      vertex 35 -20 15
    endloop
  endfacet
  facet normal 0 0 -1
    outer loop
      vertex -35 -20 -15
      vertex 35 20 -15
      vertex 35 -20 -15
    endloop
  endfacet
  facet normal -0 0 -1
    outer loop
      vertex 35 20 -15
      vertex -35 -20 -15
      vertex -35 20 -15
    endloop
  endfacet
  facet normal 0 -1 0
    outer loop
      vertex -35 -20 -15
      vertex 35 -20 15
      vertex -35 -20 15
    endloop
  endfacet
  facet normal 0 -1 -0
    outer loop
      vertex 35 -20 15
      vertex -35 -20 -15
      vertex 35 -20 -15
    endloop
  endfacet
  facet normal 0 1 -0
    outer loop
      vertex 35 20 -15
      vertex -35 20 15
      vertex 35 20 15
    endloop
  endfacet
  facet normal 0 1 0
    outer loop
      vertex -35 20 15
      vertex 35 20 -15
      vertex -35 20 -15
    endloop
  endfacet
  facet normal 1 -0 0
    outer loop
      vertex -34 -18.75 15
      vertex -34 18.75 -12
      vertex -34 18.75 15
    endloop
  endfacet
  facet normal 1 0 0
    outer loop
      vertex -34 18.75 -12
      vertex -34 -18.75 15
      vertex -34 -18.75 -12
    endloop
  endfacet
  facet normal -0 0 1
    outer loop
      vertex -34 18.75 -12
      vertex 35 -18.75 -12
      vertex 35 18.75 -12
    endloop
  endfacet
  facet normal 0 0 1
    outer loop
      vertex 35 -18.75 -12
      vertex -34 18.75 -12
      vertex -34 -18.75 -12
    endloop
  endfacet
  facet normal 0 1 -0
    outer loop
      vertex 35 -18.75 -12
      vertex -34 -18.75 15
      vertex 35 -18.75 15
    endloop
  endfacet
  facet normal 0 1 0
    outer loop
      vertex -34 -18.75 15
      vertex 35 -18.75 -12
      vertex -34 -18.75 -12
    endloop
  endfacet
  facet normal 0 -1 0
    outer loop
      vertex -34 18.75 -12
      vertex 35 18.75 15
      vertex -34 18.75 15
    endloop
  endfacet
  facet normal 0 -1 -0
    outer loop
      vertex 35 18.75 15
      vertex -34 18.75 -12
      vertex 35 18.75 -12
    endloop
  endfacet
endsolid OpenSCAD_Model
