solid OpenSCAD_Model
  facet normal -1 0 0
    outer loop
      vertex -71.5 -38 -30
      vertex -71.5 38 30
      vertex -71.5 38 -30
    endloop
  endfacet
  facet normal -1 -0 0
    outer loop
      vertex -71.5 38 30
      vertex -71.5 -38 -30
      vertex -71.5 -38 30
    endloop
  endfacet
  facet normal 0 0 1
    outer loop
      vertex -50 -35.5 30
      vertex -69 -35.5 30
      vertex -50 -36.5 30
    endloop
  endfacet
  facet normal 0 0 1
    outer loop
      vertex 71.5 38 30
      vertex 69 35.5 30
      vertex 71.5 -38 30
    endloop
  endfacet
  facet normal 0 0 1
    outer loop
      vertex 71.5 38 30
      vertex 50 36.5 30
      vertex 69 35.5 30
    endloop
  endfacet
  facet normal 0 0 1
    outer loop
      vertex 71.5 38 30
      vertex -50 36.5 30
      vertex 50 36.5 30
    endloop
  endfacet
  facet normal 0 0 1
    outer loop
      vertex -50 36.5 30
      vertex -69 35.5 30
      vertex -50 35.5 30
    endloop
  endfacet
  facet normal 0 0 1
    outer loop
      vertex -69 35.5 30
      vertex -71.5 38 30
      vertex -69 -35.5 30
    endloop
  endfacet
  facet normal 0 0 1
    outer loop
      vertex -50 36.5 30
      vertex -71.5 38 30
      vertex -69 35.5 30
    endloop
  endfacet
  facet normal -0 0 1
    outer loop
      vertex -71.5 38 30
      vertex -50 36.5 30
      vertex 71.5 38 30
    endloop
  endfacet
  facet normal -0 0 1
    outer loop
      vertex 69 -35.5 30
      vertex 71.5 -38 30
      vertex 69 35.5 30
    endloop
  endfacet
  facet normal 0 0 1
    outer loop
      vertex 50 -36.5 30
      vertex 69 -35.5 30
      vertex 50 -35.5 30
    endloop
  endfacet
  facet normal 0 0 1
    outer loop
      vertex 69 -35.5 30
      vertex 50 -36.5 30
      vertex 71.5 -38 30
    endloop
  endfacet
  facet normal -0 0 1
    outer loop
      vertex -50 -36.5 30
      vertex 71.5 -38 30
      vertex 50 -36.5 30
    endloop
  endfacet
  facet normal 0 0 1
    outer loop
      vertex -50 -36.5 30
      vertex -71.5 -38 30
      vertex 71.5 -38 30
    endloop
  endfacet
  facet normal 0 0 1
    outer loop
      vertex -69 -35.5 30
      vertex -71.5 -38 30
      vertex -50 -36.5 30
    endloop
  endfacet
  facet normal 0 0 1
    outer loop
      vertex -71.5 -38 30
      vertex -69 -35.5 30
      vertex -71.5 38 30
    endloop
  endfacet
  facet normal 0 0 1
    outer loop
      vertex 69 35.5 30
      vertex 50 36.5 30
      vertex 50 35.5 30
    endloop
  endfacet
  facet normal 1 -0 0
    outer loop
      vertex 71.5 -38 30
      vertex 71.5 38 -30
      vertex 71.5 38 30
    endloop
  endfacet
  facet normal 1 0 0
    outer loop
      vertex 71.5 38 -30
      vertex 71.5 -38 30
      vertex 71.5 -38 -30
    endloop
  endfacet
  facet normal 0 0 -1
    outer loop
      vertex -71.5 -38 -30
      vertex 71.5 38 -30
      vertex 71.5 -38 -30
    endloop
  endfacet
  facet normal -0 0 -1
    outer loop
      vertex 71.5 38 -30
      vertex -71.5 -38 -30
      vertex -71.5 38 -30
    endloop
  endfacet
  facet normal 0 -1 0
    outer loop
      vertex -71.5 -38 -30
      vertex 71.5 -38 30
      vertex -71.5 -38 30
    endloop
  endfacet
  facet normal 0 -1 -0
    outer loop
      vertex 71.5 -38 30
      vertex -71.5 -38 -30
      vertex 71.5 -38 -30
    endloop
  endfacet
  facet normal 0 1 -0
    outer loop
      vertex 71.5 38 -30
      vertex -71.5 38 30
      vertex 71.5 38 30
    endloop
  endfacet
  facet normal 0 1 0
    outer loop
      vertex -71.5 38 30
      vertex 71.5 38 -30
      vertex -71.5 38 -30
    endloop
  endfacet
  facet normal 1 -0 0
    outer loop
      vertex -69 -35.5 30
      vertex -69 35.5 -17.5
      vertex -69 35.5 30
    endloop
  endfacet
  facet normal 1 0 0
    outer loop
      vertex -69 35.5 -17.5
      vertex -69 -35.5 30
      vertex -69 -35.5 -17.5
    endloop
  endfacet
  facet normal -1 0 0
    outer loop
      vertex 69 -35.5 -17.5
      vertex 69 35.5 30
      vertex 69 35.5 -17.5
    endloop
  endfacet
  facet normal -1 -0 0
    outer loop
      vertex 69 35.5 30
      vertex 69 -35.5 -17.5
      vertex 69 -35.5 30
    endloop
  endfacet
  facet normal -0 0 1
    outer loop
      vertex -69 35.5 -17.5
      vertex -50 -35.5 -17.5
      vertex -50 35.5 -17.5
    endloop
  endfacet
  facet normal 0 0 1
    outer loop
      vertex -50 -35.5 -17.5
      vertex -69 35.5 -17.5
      vertex -69 -35.5 -17.5
    endloop
  endfacet
  facet normal 0 0 1
    outer loop
      vertex -50 35.5 -17.5
      vertex 50 35.5 -17.5
      vertex 50 36.5 -17.5
    endloop
  endfacet
  facet normal 0 0 1
    outer loop
      vertex 50 35.5 -17.5
      vertex -50 35.5 -17.5
      vertex 50 -35.5 -17.5
    endloop
  endfacet
  facet normal 0 0 1
    outer loop
      vertex -50 35.5 -17.5
      vertex 50 36.5 -17.5
      vertex -50 36.5 -17.5
    endloop
  endfacet
  facet normal 0 0 1
    outer loop
      vertex -50 -35.5 -17.5
      vertex 50 -35.5 -17.5
      vertex -50 35.5 -17.5
    endloop
  endfacet
  facet normal 0 0 1
    outer loop
      vertex 50 -35.5 -17.5
      vertex -50 -35.5 -17.5
      vertex 50 -36.5 -17.5
    endloop
  endfacet
  facet normal 0 0 1
    outer loop
      vertex 50 -36.5 -17.5
      vertex -50 -35.5 -17.5
      vertex -50 -36.5 -17.5
    endloop
  endfacet
  facet normal -0 0 1
    outer loop
      vertex 50 35.5 -17.5
      vertex 69 -35.5 -17.5
      vertex 69 35.5 -17.5
    endloop
  endfacet
  facet normal 0 0 1
    outer loop
      vertex 69 -35.5 -17.5
      vertex 50 35.5 -17.5
      vertex 50 -35.5 -17.5
    endloop
  endfacet
  facet normal 0 1 -0
    outer loop
      vertex -50 -35.5 -17.5
      vertex -69 -35.5 30
      vertex -50 -35.5 30
    endloop
  endfacet
  facet normal 0 1 0
    outer loop
      vertex -69 -35.5 30
      vertex -50 -35.5 -17.5
      vertex -69 -35.5 -17.5
    endloop
  endfacet
  facet normal 0 1 -0
    outer loop
      vertex 69 -35.5 -17.5
      vertex 50 -35.5 30
      vertex 69 -35.5 30
    endloop
  endfacet
  facet normal 0 1 0
    outer loop
      vertex 50 -35.5 30
      vertex 69 -35.5 -17.5
      vertex 50 -35.5 -17.5
    endloop
  endfacet
  facet normal 0 -1 0
    outer loop
      vertex 50 35.5 -17.5
      vertex 69 35.5 30
      vertex 50 35.5 30
    endloop
  endfacet
  facet normal 0 -1 -0
    outer loop
      vertex 69 35.5 30
      vertex 50 35.5 -17.5
      vertex 69 35.5 -17.5
    endloop
  endfacet
  facet normal 0 -1 0
    outer loop
      vertex -69 35.5 -17.5
      vertex -50 35.5 30
      vertex -69 35.5 30
    endloop
  endfacet
  facet normal 0 -1 -0
    outer loop
      vertex -50 35.5 30
      vertex -69 35.5 -17.5
      vertex -50 35.5 -17.5
    endloop
  endfacet
  facet normal 1 -0 0
    outer loop
      vertex -50 -36.5 30
      vertex -50 -35.5 -17.5
      vertex -50 -35.5 30
    endloop
  endfacet
  facet normal 1 0 0
    outer loop
      vertex -50 -35.5 -17.5
      vertex -50 -36.5 30
      vertex -50 -36.5 -17.5
    endloop
  endfacet
  facet normal 1 -0 0
    outer loop
      vertex -50 35.5 30
      vertex -50 36.5 -17.5
      vertex -50 36.5 30
    endloop
  endfacet
  facet normal 1 0 0
    outer loop
      vertex -50 36.5 -17.5
      vertex -50 35.5 30
      vertex -50 35.5 -17.5
    endloop
  endfacet
  facet normal -1 0 0
    outer loop
      vertex 50 35.5 -17.5
      vertex 50 36.5 30
      vertex 50 36.5 -17.5
    endloop
  endfacet
  facet normal -1 -0 0
    outer loop
      vertex 50 36.5 30
      vertex 50 35.5 -17.5
      vertex 50 35.5 30
    endloop
  endfacet
  facet normal -1 0 0
    outer loop
      vertex 50 -36.5 -17.5
      vertex 50 -35.5 30
      vertex 50 -35.5 -17.5
    endloop
  endfacet
  facet normal -1 -0 0
    outer loop
      vertex 50 -35.5 30
      vertex 50 -36.5 -17.5
      vertex 50 -36.5 30
    endloop
  endfacet
  facet normal 0 -1 0
    outer loop
      vertex -50 36.5 -17.5
      vertex 50 36.5 30
      vertex -50 36.5 30
    endloop
  endfacet
  facet normal 0 -1 -0
    outer loop
      vertex 50 36.5 30
      vertex -50 36.5 -17.5
      vertex 50 36.5 -17.5
    endloop
  endfacet
  facet normal 0 1 -0
    outer loop
      vertex 50 -36.5 -17.5
      vertex -50 -36.5 30
      vertex 50 -36.5 30
    endloop
  endfacet
  facet normal 0 1 0
    outer loop
      vertex -50 -36.5 30
      vertex 50 -36.5 -17.5
      vertex -50 -36.5 -17.5
    endloop
  endfacet
endsolid OpenSCAD_Model
