solid OpenSCAD_Model
  facet normal -1 0 0
    outer loop
      vertex -74 -40 -25
      vertex -74 40 25
      vertex -74 40 -25
    endloop
  endfacet
  facet normal -1 -0 0
    outer loop
      vertex -74 40 25
      vertex -74 -40 -25
      vertex -74 -40 25
    endloop
  endfacet
  facet normal 0 0 1
    outer loop
      vertex 74 40 25
      vertex 69 35 25
      vertex 74 -40 25
    endloop
  endfacet
  facet normal 0 0 1
    outer loop
      vertex 74 40 25
      vertex -69 35 25
      vertex 69 35 25
    endloop
  endfacet
  facet normal 0 0 1
    outer loop
      vertex -69 35 25
      vertex -74 40 25
      vertex -69 -35 25
    endloop
  endfacet
  facet normal -0 0 1
    outer loop
      vertex -74 40 25
      vertex -69 35 25
      vertex 74 40 25
    endloop
  endfacet
  facet normal -0 0 1
    outer loop
      vertex 69 -35 25
      vertex 74 -40 25
      vertex 69 35 25
    endloop
  endfacet
  facet normal -0 0 1
    outer loop
      vertex -69 -35 25
      vertex 74 -40 25
      vertex 69 -35 25
    endloop
  endfacet
  facet normal 0 0 1
    outer loop
      vertex -69 -35 25
      vertex -74 -40 25
      vertex 74 -40 25
    endloop
  endfacet
  facet normal 0 0 1
    outer loop
      vertex -74 -40 25
      vertex -69 -35 25
      vertex -74 40 25
    endloop
  endfacet
  facet normal 1 -0 0
    outer loop
      vertex 74 -40 25
      vertex 74 40 -25
      vertex 74 40 25
    endloop
  endfacet
  facet normal 1 0 0
    outer loop
      vertex 74 40 -25
      vertex 74 -40 25
      vertex 74 -40 -25
    endloop
  endfacet
  facet normal 0 1 -0
    outer loop
      vertex 74 40 -25
      vertex -74 40 25
      vertex 74 40 25
    endloop
  endfacet
  facet normal 0 1 0
    outer loop
      vertex -74 40 25
      vertex 74 40 -25
      vertex -74 40 -25
    endloop
  endfacet
  facet normal 0 0 -1
    outer loop
      vertex -74 -40 -25
      vertex 74 40 -25
      vertex 74 -40 -25
    endloop
  endfacet
  facet normal -0 0 -1
    outer loop
      vertex 74 40 -25
      vertex -74 -40 -25
      vertex -74 40 -25
    endloop
  endfacet
  facet normal 0 -1 0
    outer loop
      vertex -74 -40 -25
      vertex 74 -40 25
      vertex -74 -40 25
    endloop
  endfacet
  facet normal 0 -1 -0
    outer loop
      vertex 74 -40 25
      vertex -74 -40 -25
      vertex 74 -40 -25
    endloop
  endfacet
  facet normal 1 -0 0
    outer loop
      vertex -69 -35 25
      vertex -69 35 -20
      vertex -69 35 25
    endloop
  endfacet
  facet normal 1 0 0
    outer loop
      vertex -69 35 -20
      vertex -69 -35 25
      vertex -69 -35 -20
    endloop
  endfacet
  facet normal -1 0 0
    outer loop
      vertex 69 -35 -20
      vertex 69 35 25
      vertex 69 35 -20
    endloop
  endfacet
  facet normal -1 -0 0
    outer loop
      vertex 69 35 25
      vertex 69 -35 -20
      vertex 69 -35 25
    endloop
  endfacet
  facet normal 0 -1 0
    outer loop
      vertex -69 35 -20
      vertex 69 35 25
      vertex -69 35 25
    endloop
  endfacet
  facet normal 0 -1 -0
    outer loop
      vertex 69 35 25
      vertex -69 35 -20
      vertex 69 35 -20
    endloop
  endfacet
  facet normal -0 0 1
    outer loop
      vertex -69 35 -20
      vertex 69 -35 -20
      vertex 69 35 -20
    endloop
  endfacet
  facet normal 0 0 1
    outer loop
      vertex 69 -35 -20
      vertex -69 35 -20
      vertex -69 -35 -20
    endloop
  endfacet
  facet normal 0 1 -0
    outer loop
      vertex 69 -35 -20
      vertex -69 -35 25
      vertex 69 -35 25
    endloop
  endfacet
  facet normal 0 1 0
    outer loop
      vertex -69 -35 25
      vertex 69 -35 -20
      vertex -69 -35 -20
    endloop
  endfacet
endsolid OpenSCAD_Model
