solid OpenSCAD_Model
  facet normal -1 0 0
    outer loop
      vertex -71.5 -40 -25
      vertex -71.5 40 25
      vertex -71.5 40 -25
    endloop
  endfacet
  facet normal -1 -0 0
    outer loop
      vertex -71.5 40 25
      vertex -71.5 -40 -25
      vertex -71.5 -40 25
    endloop
  endfacet
  facet normal 0 0 1
    outer loop
      vertex -50 -35.5 25
      vertex -69 -35.5 25
      vertex -50 -38.5 25
    endloop
  endfacet
  facet normal 0 0 1
    outer loop
      vertex 71.5 40 25
      vertex 69 35.5 25
      vertex 71.5 -40 25
    endloop
  endfacet
  facet normal 0 0 1
    outer loop
      vertex 71.5 40 25
      vertex 50 38.5 25
      vertex 69 35.5 25
    endloop
  endfacet
  facet normal 0 0 1
    outer loop
      vertex 71.5 40 25
      vertex -50 38.5 25
      vertex 50 38.5 25
    endloop
  endfacet
  facet normal 0 0 1
    outer loop
      vertex -50 38.5 25
      vertex -69 35.5 25
      vertex -50 35.5 25
    endloop
  endfacet
  facet normal 0 0 1
    outer loop
      vertex -69 35.5 25
      vertex -71.5 40 25
      vertex -69 -35.5 25
    endloop
  endfacet
  facet normal 0 0 1
    outer loop
      vertex -50 38.5 25
      vertex -71.5 40 25
      vertex -69 35.5 25
    endloop
  endfacet
  facet normal -0 0 1
    outer loop
      vertex -71.5 40 25
      vertex -50 38.5 25
      vertex 71.5 40 25
    endloop
  endfacet
  facet normal -0 0 1
    outer loop
      vertex 69 -35.5 25
      vertex 71.5 -40 25
      vertex 69 35.5 25
    endloop
  endfacet
  facet normal 0 0 1
    outer loop
      vertex 50 -38.5 25
      vertex 69 -35.5 25
      vertex 50 -35.5 25
    endloop
  endfacet
  facet normal 0 0 1
    outer loop
      vertex 69 -35.5 25
      vertex 50 -38.5 25
      vertex 71.5 -40 25
    endloop
  endfacet
  facet normal -0 0 1
    outer loop
      vertex -50 -38.5 25
      vertex 71.5 -40 25
      vertex 50 -38.5 25
    endloop
  endfacet
  facet normal 0 0 1
    outer loop
      vertex -50 -38.5 25
      vertex -71.5 -40 25
      vertex 71.5 -40 25
    endloop
  endfacet
  facet normal 0 0 1
    outer loop
      vertex -69 -35.5 25
      vertex -71.5 -40 25
      vertex -50 -38.5 25
    endloop
  endfacet
  facet normal 0 0 1
    outer loop
      vertex -71.5 -40 25
      vertex -69 -35.5 25
      vertex -71.5 40 25
    endloop
  endfacet
  facet normal 0 0 1
    outer loop
      vertex 69 35.5 25
      vertex 50 38.5 25
      vertex 50 35.5 25
    endloop
  endfacet
  facet normal 1 -0 0
    outer loop
      vertex 71.5 -40 25
      vertex 71.5 40 -25
      vertex 71.5 40 25
    endloop
  endfacet
  facet normal 1 0 0
    outer loop
      vertex 71.5 40 -25
      vertex 71.5 -40 25
      vertex 71.5 -40 -25
    endloop
  endfacet
  facet normal 0 0 -1
    outer loop
      vertex -71.5 -40 -25
      vertex 71.5 40 -25
      vertex 71.5 -40 -25
    endloop
  endfacet
  facet normal -0 0 -1
    outer loop
      vertex 71.5 40 -25
      vertex -71.5 -40 -25
      vertex -71.5 40 -25
    endloop
  endfacet
  facet normal 0 -1 0
    outer loop
      vertex -71.5 -40 -25
      vertex 71.5 -40 25
      vertex -71.5 -40 25
    endloop
  endfacet
  facet normal 0 -1 -0
    outer loop
      vertex 71.5 -40 25
      vertex -71.5 -40 -25
      vertex 71.5 -40 -25
    endloop
  endfacet
  facet normal 0 1 -0
    outer loop
      vertex 71.5 40 -25
      vertex -71.5 40 25
      vertex 71.5 40 25
    endloop
  endfacet
  facet normal 0 1 0
    outer loop
      vertex -71.5 40 25
      vertex 71.5 40 -25
      vertex -71.5 40 -25
    endloop
  endfacet
  facet normal 1 -0 0
    outer loop
      vertex -69 -35.5 25
      vertex -69 35.5 -22.5
      vertex -69 35.5 25
    endloop
  endfacet
  facet normal 1 0 0
    outer loop
      vertex -69 35.5 -22.5
      vertex -69 -35.5 25
      vertex -69 -35.5 -22.5
    endloop
  endfacet
  facet normal -1 0 0
    outer loop
      vertex 69 -35.5 -22.5
      vertex 69 35.5 25
      vertex 69 35.5 -22.5
    endloop
  endfacet
  facet normal -1 -0 0
    outer loop
      vertex 69 35.5 25
      vertex 69 -35.5 -22.5
      vertex 69 -35.5 25
    endloop
  endfacet
  facet normal -0 0 1
    outer loop
      vertex -69 35.5 -22.5
      vertex -50 -35.5 -22.5
      vertex -50 35.5 -22.5
    endloop
  endfacet
  facet normal 0 0 1
    outer loop
      vertex -50 -35.5 -22.5
      vertex -69 35.5 -22.5
      vertex -69 -35.5 -22.5
    endloop
  endfacet
  facet normal 0 0 1
    outer loop
      vertex -50 35.5 -22.5
      vertex 50 35.5 -22.5
      vertex 50 38.5 -22.5
    endloop
  endfacet
  facet normal 0 0 1
    outer loop
      vertex 50 35.5 -22.5
      vertex -50 35.5 -22.5
      vertex 50 -35.5 -22.5
    endloop
  endfacet
  facet normal 0 0 1
    outer loop
      vertex -50 35.5 -22.5
      vertex 50 38.5 -22.5
      vertex -50 38.5 -22.5
    endloop
  endfacet
  facet normal 0 0 1
    outer loop
      vertex -50 -35.5 -22.5
      vertex 50 -35.5 -22.5
      vertex -50 35.5 -22.5
    endloop
  endfacet
  facet normal 0 0 1
    outer loop
      vertex 50 -35.5 -22.5
      vertex -50 -35.5 -22.5
      vertex 50 -38.5 -22.5
    endloop
  endfacet
  facet normal 0 0 1
    outer loop
      vertex 50 -38.5 -22.5
      vertex -50 -35.5 -22.5
      vertex -50 -38.5 -22.5
    endloop
  endfacet
  facet normal -0 0 1
    outer loop
      vertex 50 35.5 -22.5
      vertex 69 -35.5 -22.5
      vertex 69 35.5 -22.5
    endloop
  endfacet
  facet normal 0 0 1
    outer loop
      vertex 69 -35.5 -22.5
      vertex 50 35.5 -22.5
      vertex 50 -35.5 -22.5
    endloop
  endfacet
  facet normal 0 1 -0
    outer loop
      vertex -50 -35.5 -22.5
      vertex -69 -35.5 25
      vertex -50 -35.5 25
    endloop
  endfacet
  facet normal 0 1 0
    outer loop
      vertex -69 -35.5 25
      vertex -50 -35.5 -22.5
      vertex -69 -35.5 -22.5
    endloop
  endfacet
  facet normal 0 1 -0
    outer loop
      vertex 69 -35.5 -22.5
      vertex 50 -35.5 25
      vertex 69 -35.5 25
    endloop
  endfacet
  facet normal 0 1 0
    outer loop
      vertex 50 -35.5 25
      vertex 69 -35.5 -22.5
      vertex 50 -35.5 -22.5
    endloop
  endfacet
  facet normal 0 -1 0
    outer loop
      vertex 50 35.5 -22.5
      vertex 69 35.5 25
      vertex 50 35.5 25
    endloop
  endfacet
  facet normal 0 -1 -0
    outer loop
      vertex 69 35.5 25
      vertex 50 35.5 -22.5
      vertex 69 35.5 -22.5
    endloop
  endfacet
  facet normal 0 -1 0
    outer loop
      vertex -69 35.5 -22.5
      vertex -50 35.5 25
      vertex -69 35.5 25
    endloop
  endfacet
  facet normal 0 -1 -0
    outer loop
      vertex -50 35.5 25
      vertex -69 35.5 -22.5
      vertex -50 35.5 -22.5
    endloop
  endfacet
  facet normal 1 -0 0
    outer loop
      vertex -50 -38.5 25
      vertex -50 -35.5 -22.5
      vertex -50 -35.5 25
    endloop
  endfacet
  facet normal 1 0 0
    outer loop
      vertex -50 -35.5 -22.5
      vertex -50 -38.5 25
      vertex -50 -38.5 -22.5
    endloop
  endfacet
  facet normal 1 -0 0
    outer loop
      vertex -50 35.5 25
      vertex -50 38.5 -22.5
      vertex -50 38.5 25
    endloop
  endfacet
  facet normal 1 0 0
    outer loop
      vertex -50 38.5 -22.5
      vertex -50 35.5 25
      vertex -50 35.5 -22.5
    endloop
  endfacet
  facet normal -1 0 0
    outer loop
      vertex 50 35.5 -22.5
      vertex 50 38.5 25
      vertex 50 38.5 -22.5
    endloop
  endfacet
  facet normal -1 -0 0
    outer loop
      vertex 50 38.5 25
      vertex 50 35.5 -22.5
      vertex 50 35.5 25
    endloop
  endfacet
  facet normal -1 0 0
    outer loop
      vertex 50 -38.5 -22.5
      vertex 50 -35.5 25
      vertex 50 -35.5 -22.5
    endloop
  endfacet
  facet normal -1 -0 0
    outer loop
      vertex 50 -35.5 25
      vertex 50 -38.5 -22.5
      vertex 50 -38.5 25
    endloop
  endfacet
  facet normal 0 1 -0
    outer loop
      vertex 50 -38.5 -22.5
      vertex -50 -38.5 25
      vertex 50 -38.5 25
    endloop
  endfacet
  facet normal 0 1 0
    outer loop
      vertex -50 -38.5 25
      vertex 50 -38.5 -22.5
      vertex -50 -38.5 -22.5
    endloop
  endfacet
  facet normal 0 -1 0
    outer loop
      vertex -50 38.5 -22.5
      vertex 50 38.5 25
      vertex -50 38.5 25
    endloop
  endfacet
  facet normal 0 -1 -0
    outer loop
      vertex 50 38.5 25
      vertex -50 38.5 -22.5
      vertex 50 38.5 -22.5
    endloop
  endfacet
endsolid OpenSCAD_Model
